# xmcd
#
# Track frame offsets:
# 150
# 24717
# 42842
# 59697
# 73025
# 99077
# 117887
# 128877
# 142175
# 161252
# 178512
# 191822
# 207495
# 229857
#
# Disc length: 3334 seconds
#
#
# Revision: 0
# Processed by: cddbd v1.5.2PL0 Copyright (c) Steve Scherf et al.
# Submitted via: FreeRIP 2.945 
#
DISCID=cc0d040e
DTITLE=Jorge Aragao - Ao Vivo 2
DYEAR=1900
DGENRE=Samba
TTITLE0=Jorge Aragao - Eu e Voce Sempre
TTITLE1=Jorge Aragao - Papel de Pao
TTITLE2=Jorge Aragao - Ja e
TTITLE3=Jorge Aragao - Logo Agora
TTITLE4=Jorge Aragao - So por um Momento
TTITLE5=Jorge Aragao - Reflexao
TTITLE6=Jorge Aragao - Malandro
TTITLE7=Jorge Aragao - Pt Suadacoes
TTITLE8=Jorge Aragao - Termina Aqui
TTITLE9=Jorge Aragao - Resto de Esperanca
TTITLE10=Jorge Aragao - Vou Cuidar de Mim
TTITLE11=Jorge Aragao - Amor nao e por ai
TTITLE12=Jorge Aragao - Sanquine(Pelourinho)
TTITLE13=Jorge Aragao - Coisinha do Pai - Vou Festejar
EXTD=
EXTT0=
EXTT1=
EXTT2=
EXTT3=
EXTT4=
EXTT5=
EXTT6=
EXTT7=
EXTT8=
EXTT9=
EXTT10=
EXTT11=
EXTT12=
EXTT13=
PLAYORDER=
